<svg width="1728" height="1117" viewBox="0 0 1728 1117" fill="none" xmlns="http://www.w3.org/2000/svg">
<path d="M694.5 -55V1190.5" stroke="#EDDBD6"/>
<path d="M95.5 -55V1190.5" stroke="#EDDBD6"/>
<path d="M1293 -55V1190.5" stroke="#EDDBD6"/>
<path d="M994 -55V1190.5" stroke="#EDDBD6"/>
<path d="M395 -55V1190.5" stroke="#EDDBD6"/>
<path d="M1592.5 -55V1190.5" stroke="#EDDBD6"/>
<path d="M754 -55V1190.5" stroke="#EDDBD6"/>
<path d="M155 -55V1190.5" stroke="#EDDBD6"/>
<path d="M1352.5 -55V1190.5" stroke="#EDDBD6"/>
<path d="M1053.5 -55V1190.5" stroke="#EDDBD6"/>
<path d="M454.5 -55V1190.5" stroke="#EDDBD6"/>
<path d="M1652 -55V1190.5" stroke="#EDDBD6"/>
<path d="M814 -55V1190.5" stroke="#EDDBD6"/>
<path d="M215 -55V1190.5" stroke="#EDDBD6"/>
<path d="M1412.5 -55V1190.5" stroke="#EDDBD6"/>
<path d="M1113.5 -55V1190.5" stroke="#EDDBD6"/>
<path d="M514.5 -55V1190.5" stroke="#EDDBD6"/>
<path d="M1712 -55V1190.5" stroke="#EDDBD6"/>
<path d="M874 -55V1190.5" stroke="#EDDBD6"/>
<path d="M275 -55V1190.5" stroke="#EDDBD6"/>
<path d="M1472.5 -55V1190.5" stroke="#EDDBD6"/>
<path d="M1173.5 -55V1190.5" stroke="#EDDBD6"/>
<path d="M574.5 -55V1190.5" stroke="#EDDBD6"/>
<path d="M934 -55V1190.5" stroke="#EDDBD6"/>
<path d="M335 -55V1190.5" stroke="#EDDBD6"/>
<path d="M1532.5 -55V1190.5" stroke="#EDDBD6"/>
<path d="M36 -55V1190.5" stroke="#EDDBD6"/>
<path d="M1233.5 -55V1190.5" stroke="#EDDBD6"/>
<path d="M634.5 -55V1190.5" stroke="#EDDBD6"/>
<path d="M774 -55V1190.5" stroke="#EDDBD6"/>
<path d="M175 -55V1190.5" stroke="#EDDBD6"/>
<path d="M1372.5 -55V1190.5" stroke="#EDDBD6"/>
<path d="M1073.5 -55V1190.5" stroke="#EDDBD6"/>
<path d="M474.5 -55V1190.5" stroke="#EDDBD6"/>
<path d="M1672 -55V1190.5" stroke="#EDDBD6"/>
<path d="M714.5 -55V1190.5" stroke="#EDDBD6"/>
<path d="M115.5 -55V1190.5" stroke="#EDDBD6"/>
<path d="M1313 -55V1190.5" stroke="#EDDBD6"/>
<path d="M1014 -55V1190.5" stroke="#EDDBD6"/>
<path d="M415 -55V1190.5" stroke="#EDDBD6"/>
<path d="M1612.5 -55V1190.5" stroke="#EDDBD6"/>
<path d="M794 -55V1190.5" stroke="#EDDBD6"/>
<path d="M195 -55V1190.5" stroke="#EDDBD6"/>
<path d="M1392.5 -55V1190.5" stroke="#EDDBD6"/>
<path d="M1093.5 -55V1190.5" stroke="#EDDBD6"/>
<path d="M494.5 -55V1190.5" stroke="#EDDBD6"/>
<path d="M1692 -55V1190.5" stroke="#EDDBD6"/>
<path d="M894 -55V1190.5" stroke="#EDDBD6"/>
<path d="M295 -55V1190.5" stroke="#EDDBD6"/>
<path d="M1492.5 -55V1190.5" stroke="#EDDBD6"/>
<path d="M1193.5 -55V1190.5" stroke="#EDDBD6"/>
<path d="M594.5 -55V1190.5" stroke="#EDDBD6"/>
<path d="M834 -55V1190.5" stroke="#EDDBD6"/>
<path d="M235 -55V1190.5" stroke="#EDDBD6"/>
<path d="M1432.5 -55V1190.5" stroke="#EDDBD6"/>
<path d="M1133.5 -55V1190.5" stroke="#EDDBD6"/>
<path d="M534.5 -55V1190.5" stroke="#EDDBD6"/>
<path d="M954 -55V1190.5" stroke="#EDDBD6"/>
<path d="M355 -55V1190.5" stroke="#EDDBD6"/>
<path d="M1552.5 -55V1190.5" stroke="#EDDBD6"/>
<path d="M56 -55V1190.5" stroke="#EDDBD6"/>
<path d="M1253.5 -55V1190.5" stroke="#EDDBD6"/>
<path d="M654.5 -55V1190.5" stroke="#EDDBD6"/>
<path d="M914 -55V1190.5" stroke="#EDDBD6"/>
<path d="M315 -55V1190.5" stroke="#EDDBD6"/>
<path d="M1512.5 -55V1190.5" stroke="#EDDBD6"/>
<path d="M16 -55V1190.5" stroke="#EDDBD6"/>
<path d="M1213.5 -55V1190.5" stroke="#EDDBD6"/>
<path d="M614.5 -55V1190.5" stroke="#EDDBD6"/>
<path d="M734.5 -55V1190.5" stroke="#EDDBD6"/>
<path d="M135.5 -55V1190.5" stroke="#EDDBD6"/>
<path d="M1333 -55V1190.5" stroke="#EDDBD6"/>
<path d="M1034 -55V1190.5" stroke="#EDDBD6"/>
<path d="M435 -55V1190.5" stroke="#EDDBD6"/>
<path d="M1632.5 -55V1190.5" stroke="#EDDBD6"/>
<path d="M854 -55V1190.5" stroke="#EDDBD6"/>
<path d="M255 -55V1190.5" stroke="#EDDBD6"/>
<path d="M1452.5 -55V1190.5" stroke="#EDDBD6"/>
<path d="M1153.5 -55V1190.5" stroke="#EDDBD6"/>
<path d="M554.5 -55V1190.5" stroke="#EDDBD6"/>
<path d="M974 -55V1190.5" stroke="#EDDBD6"/>
<path d="M375 -55V1190.5" stroke="#EDDBD6"/>
<path d="M1572.5 -55V1190.5" stroke="#EDDBD6"/>
<path d="M76 -55V1190.5" stroke="#EDDBD6"/>
<path d="M1273.5 -55V1190.5" stroke="#EDDBD6"/>
<path d="M674.5 -55V1190.5" stroke="#EDDBD6"/>
<path d="M-483.5 558L1852.5 558" stroke="#EDDBD6"/>
<path d="M-483.5 258L1852.5 258" stroke="#EDDBD6"/>
<path d="M-483.5 857L1852.5 857" stroke="#EDDBD6"/>
<path d="M-483.5 498L1852.5 498" stroke="#EDDBD6"/>
<path d="M-483.5 1097L1852.5 1097" stroke="#EDDBD6"/>
<path d="M-483.5 199L1852.5 199" stroke="#EDDBD6"/>
<path d="M-483.5 798L1852.5 798" stroke="#EDDBD6"/>
<path d="M-483.5 438L1852.5 438" stroke="#EDDBD6"/>
<path d="M-483.5 1037L1852.5 1037" stroke="#EDDBD6"/>
<path d="M-483.5 139L1852.5 139" stroke="#EDDBD6"/>
<path d="M-483.5 738L1852.5 738" stroke="#EDDBD6"/>
<path d="M-483.5 378L1852.5 378" stroke="#EDDBD6"/>
<path d="M-483.5 977L1852.5 977" stroke="#EDDBD6"/>
<path d="M-483.5 79L1852.5 78.9999" stroke="#EDDBD6"/>
<path d="M-483.5 678L1852.5 678" stroke="#EDDBD6"/>
<path d="M-483.5 318L1852.5 318" stroke="#EDDBD6"/>
<path d="M-483.5 917L1852.5 917" stroke="#EDDBD6"/>
<path d="M-483.5 19L1852.5 18.9999" stroke="#EDDBD6"/>
<path d="M-483.5 618L1852.5 618" stroke="#EDDBD6"/>
<path d="M-483.5 478L1852.5 478" stroke="#EDDBD6"/>
<path d="M-483.5 1077L1852.5 1077" stroke="#EDDBD6"/>
<path d="M-483.5 179L1852.5 179" stroke="#EDDBD6"/>
<path d="M-483.5 778L1852.5 778" stroke="#EDDBD6"/>
<path d="M-483.5 538L1852.5 538" stroke="#EDDBD6"/>
<path d="M-483.5 238L1852.5 238" stroke="#EDDBD6"/>
<path d="M-483.5 837L1852.5 837" stroke="#EDDBD6"/>
<path d="M-483.5 458L1852.5 458" stroke="#EDDBD6"/>
<path d="M-483.5 1057L1852.5 1057" stroke="#EDDBD6"/>
<path d="M-483.5 159L1852.5 159" stroke="#EDDBD6"/>
<path d="M-483.5 758L1852.5 758" stroke="#EDDBD6"/>
<path d="M-483.5 358L1852.5 358" stroke="#EDDBD6"/>
<path d="M-483.5 957L1852.5 957" stroke="#EDDBD6"/>
<path d="M-483.5 59L1852.5 58.9999" stroke="#EDDBD6"/>
<path d="M-483.5 658L1852.5 658" stroke="#EDDBD6"/>
<path d="M-483.5 418L1852.5 418" stroke="#EDDBD6"/>
<path d="M-483.5 1017L1852.5 1017" stroke="#EDDBD6"/>
<path d="M-483.5 119L1852.5 119" stroke="#EDDBD6"/>
<path d="M-483.5 718L1852.5 718" stroke="#EDDBD6"/>
<path d="M-483.5 298L1852.5 298" stroke="#EDDBD6"/>
<path d="M-483.5 897L1852.5 897" stroke="#EDDBD6"/>
<path d="M-483.5 598L1852.5 598" stroke="#EDDBD6"/>
<path d="M-483.5 338L1852.5 338" stroke="#EDDBD6"/>
<path d="M-483.5 937L1852.5 937" stroke="#EDDBD6"/>
<path d="M-483.5 39L1852.5 38.9999" stroke="#EDDBD6"/>
<path d="M-483.5 638L1852.5 638" stroke="#EDDBD6"/>
<path d="M-483.5 518L1852.5 518" stroke="#EDDBD6"/>
<path d="M-483.5 1117L1852.5 1117" stroke="#EDDBD6"/>
<path d="M-483.5 218L1852.5 218" stroke="#EDDBD6"/>
<path d="M-483.5 817L1852.5 817" stroke="#EDDBD6"/>
<path d="M-483.5 398L1852.5 398" stroke="#EDDBD6"/>
<path d="M-483.5 997L1852.5 997" stroke="#EDDBD6"/>
<path d="M-483.5 99L1852.5 98.9999" stroke="#EDDBD6"/>
<path d="M-483.5 698L1852.5 698" stroke="#EDDBD6"/>
<path d="M-483.5 278L1852.5 278" stroke="#EDDBD6"/>
<path d="M-483.5 877L1852.5 877" stroke="#EDDBD6"/>
<path d="M-483.5 578L1852.5 578" stroke="#EDDBD6"/>
</svg>
