<svg width="30" height="30" viewBox="0 0 30 30" fill="none" xmlns="http://www.w3.org/2000/svg">
<path d="M0.0438815 27.6528C-0.0165882 27.933 -0.0145152 28.2233 0.0499487 28.5026C0.114413 28.7819 0.239639 29.0431 0.41648 29.267C0.593321 29.491 0.81731 29.6721 1.07208 29.7972C1.32685 29.9222 1.60598 29.988 1.88905 29.9897C2.02096 30.0032 2.15386 30.0032 2.28577 29.9897M0.0438815 27.6528L0.51981 27.7616L0.520524 27.7585M0.0438815 27.6528L1.7968 19.9876M0.0438815 27.6528L0.52111 27.7558C0.520913 27.7567 0.520718 27.7576 0.520524 27.7585M0.520524 27.7585C0.475798 27.9677 0.477549 28.1844 0.525656 28.3928C0.573969 28.6021 0.667724 28.7974 0.799653 28.9645L0.417063 29.2666L0.799654 28.9645C0.931565 29.1316 1.09823 29.2662 1.28717 29.3589C1.47608 29.4516 1.68272 29.5002 1.89204 29.5015L1.91546 29.5016L1.93875 29.504C2.02802 29.5132 2.11791 29.5141 2.2073 29.5067M0.520524 27.7585L2.24182 20.2316M2.2073 29.5067L2.17482 29.5143L2.28577 29.9897M2.2073 29.5067C2.2169 29.5059 2.22649 29.505 2.23607 29.504L2.28577 29.9897M2.2073 29.5067L9.64924 27.7701M2.28577 29.9897L9.8971 28.2136M9.8971 28.2136L9.55028 27.87L9.64924 27.7701M9.8971 28.2136L24.5109 13.4629M9.8971 28.2136L9.78616 27.7382L9.64924 27.7701M9.64924 27.7701L23.8239 13.4626M24.5109 13.4629L24.1638 13.8062L23.8239 13.4626M24.5109 13.4629L16.6986 5.56529L16.3558 5.91301M24.5109 13.4629L24.164 13.1193L23.8239 13.4626M23.8239 13.4626L16.3558 5.91301M16.3558 5.91301L16.0125 5.56589L1.7968 19.9876M16.3558 5.91301L2.24182 20.2316M2.24182 20.2316L2.27272 20.0965L1.7968 19.9876M2.24182 20.2316L2.14449 20.3303L1.7968 19.9876" fill="white" stroke="#F6F6F4" stroke-width="0.976429"/>
<path d="M28.758 6.42122L28.7594 6.42271C28.8925 6.55634 28.9985 6.71557 29.0712 6.89148C29.1439 7.06739 29.1818 7.25633 29.1824 7.44742C29.183 7.63852 29.1465 7.82772 29.075 8.00414C29.0035 8.1804 28.8987 8.34026 28.7667 8.47474C28.7666 8.47486 28.7664 8.47497 28.7663 8.47509L26.0886 11.1882L18.6281 3.62916L21.3148 0.906926C21.315 0.906786 21.3151 0.906646 21.3153 0.906506C21.5821 0.637731 21.9417 0.488031 22.3152 0.488031C22.6887 0.488031 23.0483 0.63772 23.3151 0.906475C23.3153 0.906625 23.3154 0.906776 23.3156 0.906926L28.758 6.42122Z" fill="white" stroke="#F6F6F4" stroke-width="0.976429"/>
</svg>
