<svg width="166" height="149" viewBox="0 0 166 149" fill="none" xmlns="http://www.w3.org/2000/svg">
<path d="M112.622 35.1297H53.2021V16.1507C53.2021 7.30655 60.2534 0.146973 68.9637 0.146973H96.8608C105.571 0.146973 112.622 7.30655 112.622 16.1507V35.1297Z" fill="#D3D3D3"/>
<path d="M71.2383 3.14887C70.382 0.581205 65.699 2.10278 63.2773 3.58361C60.8555 5.06443 57.4704 8.97706 58.688 9.96881C59.8922 10.947 61.8724 8.44723 66.0871 7.26529C70.0074 6.16486 71.9475 5.26821 71.2383 3.14887Z" fill="white"/>
<path d="M116.208 21.0135H49.6832V18.1605C49.6832 16.9931 50.1399 15.8735 50.9529 15.048C51.7659 14.2225 52.8685 13.7588 54.0183 13.7588H111.886C112.456 13.7588 113.019 13.8726 113.545 14.0938C114.071 14.3151 114.549 14.6393 114.952 15.048C115.354 15.4568 115.674 15.942 115.892 16.476C116.109 17.0101 116.222 17.5825 116.222 18.1605V21.0135H116.208Z" fill="white"/>
<path d="M15.8052 101.794C22.6996 101.794 28.2887 91.2469 28.2887 78.2365C28.2887 65.2262 22.6996 54.6792 15.8052 54.6792C8.91076 54.6792 3.32172 65.2262 3.32172 78.2365C3.32172 91.2469 8.91076 101.794 15.8052 101.794Z" fill="#D3D3D3"/>
<path d="M13.8383 54.6636H17.3438V101.792H13.8383V54.6636Z" fill="white"/>
<path d="M17.7588 101.797H14.2532L14.2532 54.6691H17.7588L17.7588 101.797Z" fill="white"/>
<path d="M150.528 101.794C157.422 101.794 163.011 91.2469 163.011 78.2365C163.011 65.2262 157.422 54.6792 150.528 54.6792C143.633 54.6792 138.044 65.2262 138.044 78.2365C138.044 91.2469 143.633 101.794 150.528 101.794Z" fill="#D3D3D3"/>
<path d="M152.487 101.797H148.981V54.6691H152.487V101.797Z" fill="white"/>
<path d="M148.561 54.6636H152.066V101.792H148.561V54.6636Z" fill="white"/>
<path d="M146.166 35.1157L131.354 20.4162C128.644 17.7249 125.003 16.2181 121.212 16.2183H45.2947C41.5082 16.2183 37.8688 17.7263 35.1527 20.4162L20.3411 35.1157C18.9587 36.4862 17.8605 38.1239 17.1114 39.9322C16.3622 41.7405 15.9773 43.6828 15.9793 45.6445V119.034C15.9793 123.001 17.5581 126.791 20.3411 129.562L35.1527 144.262C37.8688 146.952 41.4948 148.46 45.2947 148.46H121.212C124.999 148.46 128.638 146.952 131.354 144.262L146.166 129.562C148.962 126.791 150.528 123.001 150.528 119.034V45.6445C150.528 41.6911 148.949 37.8872 146.166 35.1157Z" fill="#EEEEEE"/>
<path d="M51.3825 83.1678C62.1933 83.1678 70.9573 74.2691 70.9573 63.2921C70.9573 52.3151 62.1933 43.4165 51.3825 43.4165C40.5716 43.4165 31.8076 52.3151 31.8076 63.2921C31.8076 74.2691 40.5716 83.1678 51.3825 83.1678Z" fill="#A7A5A5"/>
<path d="M51.3825 75.7899C58.1808 75.7899 63.692 70.194 63.692 63.2912C63.692 56.3883 58.1808 50.7925 51.3825 50.7925C44.5841 50.7925 39.0729 56.3883 39.0729 63.2912C39.0729 70.194 44.5841 75.7899 51.3825 75.7899Z" fill="white"/>
<path d="M113.84 83.1678C124.651 83.1678 133.415 74.2691 133.415 63.2921C133.415 52.3151 124.651 43.4165 113.84 43.4165C103.029 43.4165 94.2652 52.3151 94.2652 63.2921C94.2652 74.2691 103.029 83.1678 113.84 83.1678Z" fill="#A7A5A5"/>
<path d="M113.84 75.7899C120.638 75.7899 126.149 70.194 126.149 63.2912C126.149 56.3883 120.638 50.7925 113.84 50.7925C107.042 50.7925 101.53 56.3883 101.53 63.2912C101.53 70.194 107.042 75.7899 113.84 75.7899Z" fill="white"/>
<path d="M8.24557 59.3394C8.24557 59.3394 1.60912 75.0714 5.32874 90.8034L0.659149 87.3391C0.659149 87.3391 1.03379 79.4867 3.32175 70.8327C5.6231 62.1516 8.24557 59.3394 8.24557 59.3394ZM157.994 59.3394C157.994 59.3394 164.63 75.0714 160.911 90.8034L165.58 87.3391C165.58 87.3391 165.205 79.4867 162.918 70.8327C160.616 62.1516 157.994 59.3394 157.994 59.3394Z" fill="#CDCDCD"/>
<path d="M80.243 76.6189L73.0312 94.2122C72.2819 96.0327 73.6065 98.0433 75.5466 98.0433H89.6892C91.6159 98.0433 92.9405 96.0598 92.218 94.253L85.2872 76.6597C84.3774 74.3638 81.1795 74.3366 80.243 76.6189Z" fill="#D3D3D3"/>
<path d="M62.2335 110.081V123.951V110.081ZM76.3895 110.081V123.951V110.081ZM90.5588 110.081V123.951V110.081ZM104.715 110.081V123.951V110.081Z" fill="#ECEFF1"/>
<path d="M107.19 123.951H59.3168C52.7473 123.951 47.4087 118.544 47.4087 111.86V110.081H119.085V111.86C119.085 118.531 113.76 123.951 107.19 123.951Z" fill="white"/>
<path d="M108.368 123.951H58.1394C52.2255 123.951 47.4221 119.074 47.4221 113.069C47.4221 111.412 48.7467 110.081 50.3656 110.081H116.155C117.787 110.081 119.098 111.426 119.098 113.069C119.085 119.074 114.295 123.951 108.368 123.951Z" fill="#A7A5A5"/>
<path d="M60.133 111.698V123.11C60.133 123.11 47.4221 122.05 47.4221 111.861L60.133 111.698ZM106.267 111.698V123.11C106.267 123.11 118.978 122.05 118.978 111.861L106.267 111.698Z" fill="#A7A5A5"/>
<path d="M65.3375 112.99H73.6331V121.087H65.3375V112.99ZM78.4633 112.99H86.7588V121.087H78.4633V112.99ZM91.589 112.99H99.8845V121.087H91.589V112.99ZM105.036 121.087H104.715V112.99H113.01C113.01 117.459 109.438 121.087 105.036 121.087ZM60.5208 121.087H60.1997C55.7977 121.087 52.2252 117.459 52.2252 112.99H60.5208V121.087Z" fill="white"/>
</svg>
