<svg width="30" height="30" viewBox="0 0 30 30" fill="none" xmlns="http://www.w3.org/2000/svg">
<path d="M0.0438662 27.6529C-0.0166034 27.9331 -0.0145305 28.2234 0.0499334 28.5027C0.114397 28.782 0.239624 29.0432 0.416465 29.2671C0.593306 29.4911 0.817294 29.6722 1.07207 29.7973C1.32684 29.9223 1.60596 29.9881 1.88904 29.9898C2.02094 30.0033 2.15385 30.0033 2.28575 29.9898M0.0438662 27.6529L0.519794 27.7617L0.520508 27.7586M0.0438662 27.6529L1.79678 19.9877M0.0438662 27.6529L0.521094 27.7559C0.520898 27.7568 0.520703 27.7577 0.520508 27.7586M0.520508 27.7586C0.475783 27.9678 0.477534 28.1845 0.525641 28.3929C0.573954 28.6022 0.667708 28.7975 0.799637 28.9646L0.417048 29.2667L0.799639 28.9646C0.931549 29.1317 1.09822 29.2662 1.28715 29.359C1.47607 29.4517 1.6827 29.5003 1.89203 29.5016L1.91544 29.5017L1.93873 29.5041C2.02801 29.5133 2.11789 29.5141 2.20729 29.5068M0.520508 27.7586L2.2418 20.2317M2.20729 29.5068L2.17481 29.5144L2.28575 29.9898M2.20729 29.5068C2.21688 29.506 2.22647 29.5051 2.23606 29.5041L2.28575 29.9898M2.20729 29.5068L9.64922 27.7702M2.28575 29.9898L9.89709 28.2137M9.89709 28.2137L9.55026 27.8701L9.64922 27.7702M9.89709 28.2137L24.5109 13.463M9.89709 28.2137L9.78614 27.7383L9.64922 27.7702M9.64922 27.7702L23.8239 13.4627M24.5109 13.463L24.1638 13.8063L23.8239 13.4627M24.5109 13.463L16.6986 5.56538L16.3558 5.9131M24.5109 13.463L24.164 13.1194L23.8239 13.4627M23.8239 13.4627L16.3558 5.9131M16.3558 5.9131L16.0124 5.56598L1.79678 19.9877M16.3558 5.9131L2.2418 20.2317M2.2418 20.2317L2.27271 20.0965L1.79678 19.9877M2.2418 20.2317L2.14447 20.3304L1.79678 19.9877" fill="white" stroke="#F6F6F4" stroke-width="0.976429"/>
<path d="M28.7577 6.42128L28.7592 6.42277C28.8922 6.5564 28.9983 6.71563 29.071 6.89154C29.1437 7.06746 29.1815 7.25639 29.1821 7.44748C29.1828 7.63858 29.1462 7.82778 29.0747 8.0042C29.0032 8.18046 28.8984 8.34032 28.7664 8.4748C28.7663 8.47492 28.7662 8.47504 28.7661 8.47515L26.0883 11.1883L18.6278 3.62922L21.3146 0.906987C21.3147 0.906847 21.3149 0.906707 21.315 0.906567C21.5818 0.637792 21.9415 0.488092 22.315 0.488092C22.6884 0.488092 23.048 0.637781 23.3149 0.906536C23.315 0.906686 23.3152 0.906837 23.3153 0.906987L28.7577 6.42128Z" fill="white" stroke="#F6F6F4" stroke-width="0.976429"/>
</svg>
