<svg width="16" height="16" viewBox="0 0 16 16" fill="none" xmlns="http://www.w3.org/2000/svg">
<path d="M8 0C12.411 0 16 3.58898 16 8C16 12.411 12.411 16 8 16C3.58898 16 3.05031e-07 12.411 3.05031e-07 8C3.05031e-07 3.58898 3.58898 0 8 0ZM8 14.017C11.3181 14.017 14.017 11.3178 14.017 8C14.017 4.68195 11.3181 1.9825 8 1.9825C4.68195 1.9825 1.98301 4.68195 1.98301 8C1.98301 11.3178 4.6822 14.017 8 14.017V14.017Z" fill="#1B75BB"/>
<path d="M7.98928 4.49513C8.26547 4.49513 8.50353 4.41059 8.7007 4.24101C8.89787 4.07093 8.99621 3.82986 8.99621 3.5183C8.99621 3.23609 8.89587 3.00355 8.69368 2.82168C8.49174 2.6388 8.25669 2.54724 7.98928 2.54724C7.73165 2.54724 7.50212 2.62952 7.30294 2.79559C7.10427 2.9609 7.00367 3.20222 7.00367 3.5183C7.00367 3.82509 7.10151 4.06366 7.29617 4.23775C7.49083 4.40958 7.72187 4.49513 7.98928 4.49513V4.49513ZM7.00367 6.55414V12.313C7.00367 12.7119 7.0995 13.0136 7.28889 13.2181C7.47779 13.4218 7.71911 13.5244 8.0111 13.5244C8.3031 13.5244 8.54116 13.4203 8.72303 13.2108C8.9059 13.0013 8.99646 12.7021 8.99646 12.313V6.61309C8.99646 6.21875 8.9059 5.92148 8.72303 5.72231C8.54116 5.52238 8.3031 5.42404 8.0111 5.42404C7.71911 5.42404 7.47779 5.52238 7.28889 5.72231C7.0995 5.92123 7.00367 6.19968 7.00367 6.55414" fill="#1B75BB"/>
</svg>
