<svg width="30" height="30" viewBox="0 0 30 30" fill="none" xmlns="http://www.w3.org/2000/svg">
<path d="M0.0438662 27.6528C-0.0166034 27.933 -0.0145305 28.2233 0.0499334 28.5026C0.114397 28.7819 0.239624 29.0431 0.416465 29.267C0.593306 29.491 0.817294 29.6721 1.07207 29.7972C1.32684 29.9222 1.60596 29.988 1.88904 29.9897C2.02094 30.0032 2.15385 30.0032 2.28575 29.9897M0.0438662 27.6528L0.519794 27.7616L0.520508 27.7585M0.0438662 27.6528L1.79678 19.9876M0.0438662 27.6528L0.521094 27.7558C0.520898 27.7567 0.520703 27.7576 0.520508 27.7585M0.520508 27.7585C0.475783 27.9677 0.477534 28.1844 0.525641 28.3928C0.573954 28.6021 0.667708 28.7974 0.799637 28.9645L0.417048 29.2666L0.799639 28.9645C0.931549 29.1316 1.09822 29.2662 1.28715 29.3589C1.47607 29.4516 1.6827 29.5002 1.89203 29.5015L1.91544 29.5016L1.93873 29.504C2.02801 29.5132 2.11789 29.5141 2.20729 29.5067M0.520508 27.7585L2.2418 20.2316M2.20729 29.5067L2.17481 29.5143L2.28575 29.9897M2.20729 29.5067C2.21688 29.5059 2.22647 29.505 2.23606 29.504L2.28575 29.9897M2.20729 29.5067L9.64922 27.7701M2.28575 29.9897L9.89709 28.2136M9.89709 28.2136L9.55026 27.87L9.64922 27.7701M9.89709 28.2136L24.5109 13.4629M9.89709 28.2136L9.78614 27.7382L9.64922 27.7701M9.64922 27.7701L23.8239 13.4626M24.5109 13.4629L24.1638 13.8062L23.8239 13.4626M24.5109 13.4629L16.6986 5.56529L16.3558 5.91301M24.5109 13.4629L24.164 13.1193L23.8239 13.4626M23.8239 13.4626L16.3558 5.91301M16.3558 5.91301L16.0124 5.56589L1.79678 19.9876M16.3558 5.91301L2.2418 20.2316M2.2418 20.2316L2.27271 20.0965L1.79678 19.9876M2.2418 20.2316L2.14447 20.3303L1.79678 19.9876" fill="white" stroke="#F6F6F4" stroke-width="0.976429"/>
<path d="M28.7577 6.42122L28.7592 6.42271C28.8922 6.55634 28.9983 6.71557 29.071 6.89148C29.1437 7.06739 29.1815 7.25633 29.1821 7.44742C29.1828 7.63852 29.1462 7.82772 29.0747 8.00414C29.0032 8.1804 28.8984 8.34026 28.7664 8.47474C28.7663 8.47486 28.7662 8.47497 28.7661 8.47509L26.0883 11.1882L18.6278 3.62916L21.3146 0.906926C21.3147 0.906786 21.3149 0.906646 21.315 0.906506C21.5818 0.637731 21.9415 0.488031 22.315 0.488031C22.6884 0.488031 23.048 0.63772 23.3149 0.906475C23.315 0.906625 23.3152 0.906776 23.3153 0.906926L28.7577 6.42122Z" fill="white" stroke="#F6F6F4" stroke-width="0.976429"/>
</svg>
