<svg width="30" height="30" viewBox="0 0 30 30" fill="none" xmlns="http://www.w3.org/2000/svg">
<path d="M1.93873 29.5041L1.91544 29.5017L1.89203 29.5016C1.6827 29.5003 1.47607 29.4517 1.28715 29.359C1.09822 29.2662 0.931549 29.1317 0.799638 28.9646C0.667708 28.7975 0.573954 28.6022 0.52564 28.3929C0.477534 28.1845 0.475783 27.9678 0.520508 27.7586L2.2418 20.2317L16.3558 5.9131L23.8239 13.4627L9.64922 27.7702L2.20731 29.5068C2.11791 29.5141 2.02801 29.5133 1.93873 29.5041Z" fill="white" stroke="#F6F6F4" stroke-width="0.976429"/>
<path d="M23.3156 0.906987L28.758 6.42128L29.1054 6.07833L28.7594 6.42277C28.8925 6.5564 28.9985 6.71564 29.0712 6.89154C29.1439 7.06746 29.1817 7.25639 29.1824 7.44748C29.183 7.63858 29.1465 7.82778 29.0749 8.0042C29.0035 8.18046 28.8986 8.34032 28.7667 8.4748C28.7666 8.47492 28.7664 8.47504 28.7663 8.47516L26.0886 11.1883L18.6281 3.62922L21.3148 0.906987C21.315 0.906861 21.3151 0.906734 21.3152 0.906608C21.582 0.637808 21.9417 0.488092 22.3152 0.488092C22.6887 0.488092 23.0483 0.637781 23.3151 0.906536C23.3153 0.906686 23.3154 0.906837 23.3156 0.906987Z" fill="white" stroke="#F6F6F4" stroke-width="0.976429"/>
</svg>
