<svg width="192" height="24" viewBox="0 0 192 24" fill="none" xmlns="http://www.w3.org/2000/svg">
<rect x="14" y="4.96558" width="3" height="14.069" rx="1.5" fill="black" fill-opacity="0.5"/>
<rect x="21" width="3" height="24" rx="1.5" fill="black" fill-opacity="0.5"/>
<rect x="28" y="3.3103" width="3" height="17.3793" rx="1.5" fill="black" fill-opacity="0.5"/>
<rect x="35" y="9.10339" width="3" height="5.7931" rx="1.5" fill="black" fill-opacity="0.5"/>
<rect x="42" y="7.44824" width="3" height="9.10345" rx="1.5" fill="black" fill-opacity="0.5"/>
<rect x="49" y="4.96558" width="3" height="14.069" rx="1.5" fill="black" fill-opacity="0.5"/>
<rect x="56" y="0.827637" width="3" height="22.3448" rx="1.5" fill="black" fill-opacity="0.5"/>
<rect x="63" y="8.27588" width="3" height="7.44827" rx="1.5" fill="black" fill-opacity="0.5"/>
<rect x="70" y="5.79309" width="3" height="12.4138" rx="1.5" fill="black" fill-opacity="0.5"/>
<rect x="77" y="5.40845" width="3" height="13.3438" rx="1.5" fill="black" fill-opacity="0.5"/>
<rect x="84" y="7.76184" width="3" height="8.63423" rx="1.5" fill="black" fill-opacity="0.5"/>
<rect x="91" y="1.65198" width="3" height="20.6897" rx="1.5" fill="black" fill-opacity="0.5"/>
<rect x="98" y="4.96228" width="3" height="14.069" rx="1.5" fill="black" fill-opacity="0.5"/>
<rect x="105" y="8.27258" width="3" height="7.44827" rx="1.5" fill="black" fill-opacity="0.5"/>
<rect x="112" y="3.30713" width="3" height="17.3793" rx="1.5" fill="black" fill-opacity="0.5"/>
<rect x="119" y="4.96228" width="3" height="14.069" rx="1.5" fill="black" fill-opacity="0.5"/>
<rect x="126" y="7.44507" width="3" height="9.10345" rx="1.5" fill="black" fill-opacity="0.5"/>
<rect x="133" y="9.10022" width="3" height="5.7931" rx="1.5" fill="black" fill-opacity="0.5"/>
<rect x="140" y="3.30713" width="3" height="17.3793" rx="1.5" fill="black" fill-opacity="0.5"/>
<rect x="147" y="5.78992" width="3" height="12.4138" rx="1.5" fill="black" fill-opacity="0.5"/>
<rect x="154" y="1.65198" width="3" height="20.6897" rx="1.5" fill="black" fill-opacity="0.5"/>
<rect x="161" y="6.61743" width="3" height="10.7586" rx="1.5" fill="black" fill-opacity="0.5"/>
<rect x="168" y="2.47949" width="3" height="19.0345" rx="1.5" fill="black" fill-opacity="0.5"/>
<rect x="175" y="6.61743" width="3" height="10.7586" rx="1.5" fill="black" fill-opacity="0.5"/>
<rect x="182" y="3.30713" width="3" height="17.3793" rx="1.5" fill="black" fill-opacity="0.5"/>
<rect x="189" y="7.44507" width="3" height="9.10345" rx="1.5" fill="black" fill-opacity="0.5"/>
<rect x="7" y="5.40845" width="3" height="12.5589" rx="1.5" fill="black" fill-opacity="0.5"/>
<rect y="9.33301" width="3" height="5.49451" rx="1.5" fill="black" fill-opacity="0.5"/>
</svg>
