<svg width="30" height="30" viewBox="0 0 30 30" fill="none" xmlns="http://www.w3.org/2000/svg">
<path d="M0.0438815 27.6529C-0.0165882 27.9331 -0.0145152 28.2234 0.0499487 28.5027C0.114413 28.782 0.239639 29.0432 0.41648 29.2671C0.593321 29.4911 0.81731 29.6722 1.07208 29.7973C1.32685 29.9223 1.60598 29.9881 1.88905 29.9898C2.02096 30.0033 2.15386 30.0033 2.28577 29.9898M0.0438815 27.6529L0.51981 27.7617L0.520524 27.7586M0.0438815 27.6529L1.7968 19.9877M0.0438815 27.6529L0.52111 27.7559C0.520913 27.7568 0.520718 27.7577 0.520524 27.7586M0.520524 27.7586C0.475798 27.9678 0.477549 28.1845 0.525656 28.3929C0.573969 28.6022 0.667724 28.7975 0.799653 28.9646L0.417063 29.2667L0.799654 28.9646C0.931565 29.1317 1.09823 29.2662 1.28717 29.359C1.47608 29.4517 1.68272 29.5003 1.89204 29.5016L1.91546 29.5017L1.93875 29.5041C2.02802 29.5133 2.11791 29.5141 2.2073 29.5068M0.520524 27.7586L2.24182 20.2317M2.2073 29.5068L2.17482 29.5144L2.28577 29.9898M2.2073 29.5068C2.2169 29.506 2.22649 29.5051 2.23607 29.5041L2.28577 29.9898M2.2073 29.5068L9.64924 27.7702M2.28577 29.9898L9.8971 28.2137M9.8971 28.2137L9.55028 27.8701L9.64924 27.7702M9.8971 28.2137L24.5109 13.463M9.8971 28.2137L9.78616 27.7383L9.64924 27.7702M9.64924 27.7702L23.8239 13.4627M24.5109 13.463L24.1638 13.8063L23.8239 13.4627M24.5109 13.463L16.6986 5.56538L16.3558 5.9131M24.5109 13.463L24.164 13.1194L23.8239 13.4627M23.8239 13.4627L16.3558 5.9131M16.3558 5.9131L16.0125 5.56598L1.7968 19.9877M16.3558 5.9131L2.24182 20.2317M2.24182 20.2317L2.27272 20.0965L1.7968 19.9877M2.24182 20.2317L2.14449 20.3304L1.7968 19.9877" fill="white" stroke="#F6F6F4" stroke-width="0.976429"/>
<path d="M28.758 6.42128L28.7594 6.42277C28.8925 6.5564 28.9985 6.71563 29.0712 6.89154C29.1439 7.06746 29.1818 7.25639 29.1824 7.44748C29.183 7.63858 29.1465 7.82778 29.075 8.0042C29.0035 8.18046 28.8987 8.34032 28.7667 8.4748C28.7666 8.47492 28.7664 8.47504 28.7663 8.47515L26.0886 11.1883L18.6281 3.62922L21.3148 0.906987C21.315 0.906847 21.3151 0.906707 21.3153 0.906567C21.5821 0.637792 21.9417 0.488092 22.3152 0.488092C22.6887 0.488092 23.0483 0.637781 23.3151 0.906536C23.3153 0.906686 23.3154 0.906837 23.3156 0.906987L28.758 6.42128Z" fill="white" stroke="#F6F6F4" stroke-width="0.976429"/>
</svg>
