<svg width="16" height="16" viewBox="0 0 16 16" fill="none" xmlns="http://www.w3.org/2000/svg">
<path d="M8 0C12.411 0 16 3.58898 16 8C16 12.411 12.411 16 8 16C3.58897 16 0 12.411 0 8C0 3.58898 3.58897 0 8 0ZM8 14.017C11.3181 14.017 14.017 11.3178 14.017 8C14.017 4.68195 11.3181 1.9825 8 1.9825C4.68195 1.9825 1.98301 4.68195 1.98301 8C1.98301 11.3178 4.6822 14.017 8 14.017Z" fill="#1B75BB"/>
<path d="M7.98916 4.49513C8.26535 4.49513 8.50341 4.41059 8.70058 4.24101C8.89775 4.07093 8.99609 3.82986 8.99609 3.5183C8.99609 3.23609 8.89575 3.00355 8.69356 2.82168C8.49162 2.6388 8.25657 2.54724 7.98916 2.54724C7.73153 2.54724 7.502 2.62952 7.30282 2.79559C7.10414 2.9609 7.00355 3.20222 7.00355 3.5183C7.00355 3.82509 7.10138 4.06366 7.29605 4.23775C7.49071 4.40958 7.72175 4.49513 7.98916 4.49513ZM7.00355 6.55414V12.313C7.00355 12.7119 7.09938 13.0136 7.28877 13.2181C7.47766 13.4218 7.71899 13.5244 8.01098 13.5244C8.30298 13.5244 8.54104 13.4203 8.72291 13.2108C8.90578 13.0013 8.99634 12.7021 8.99634 12.313V6.61309C8.99634 6.21875 8.90578 5.92148 8.72291 5.72231C8.54104 5.52238 8.30298 5.42404 8.01098 5.42404C7.71899 5.42404 7.47766 5.52238 7.28877 5.72231C7.09938 5.92123 7.00355 6.19968 7.00355 6.55414Z" fill="#1B75BB"/>
</svg>
