<svg width="166" height="149" viewBox="0 0 166 149" fill="none" xmlns="http://www.w3.org/2000/svg">
<path d="M112.622 35.1297H53.2021V16.1507C53.2021 7.30655 60.2534 0.146973 68.9637 0.146973H96.8608C105.571 0.146973 112.622 7.30655 112.622 16.1507V35.1297V35.1297Z" fill="#D3D3D3"/>
<path d="M71.2383 3.14887C70.382 0.581205 65.699 2.10278 63.2772 3.58361C60.8555 5.06443 57.4704 8.97706 58.6879 9.96881C59.8921 10.947 61.8724 8.44723 66.087 7.26529C70.0074 6.16486 71.9474 5.26821 71.2383 3.14887V3.14887Z" fill="white"/>
<path d="M116.208 21.0135H49.6831V18.1605C49.6831 16.9931 50.1398 15.8735 50.9528 15.048C51.7658 14.2225 52.8685 13.7588 54.0182 13.7588H111.886C112.456 13.7588 113.019 13.8726 113.545 14.0938C114.071 14.3151 114.549 14.6393 114.952 15.048C115.354 15.4568 115.674 15.942 115.891 16.476C116.109 17.0101 116.221 17.5825 116.221 18.1605V21.0135H116.208Z" fill="white"/>
<path d="M15.8052 101.794C22.6997 101.794 28.2887 91.2469 28.2887 78.2365C28.2887 65.2262 22.6997 54.6792 15.8052 54.6792C8.91082 54.6792 3.32178 65.2262 3.32178 78.2365C3.32178 91.2469 8.91082 101.794 15.8052 101.794Z" fill="#D3D3D3"/>
<path d="M13.8384 54.6636H17.3439V101.792H13.8384V54.6636Z" fill="white"/>
<path d="M17.7588 101.797H14.2532L14.2532 54.6691H17.7588L17.7588 101.797Z" fill="white"/>
<path d="M150.528 101.794C157.422 101.794 163.011 91.2469 163.011 78.2365C163.011 65.2262 157.422 54.6792 150.528 54.6792C143.633 54.6792 138.044 65.2262 138.044 78.2365C138.044 91.2469 143.633 101.794 150.528 101.794Z" fill="#D3D3D3"/>
<path d="M152.487 101.797H148.981V54.6691H152.487V101.797Z" fill="white"/>
<path d="M148.561 54.6636H152.067V101.792H148.561V54.6636Z" fill="white"/>
<path d="M146.166 35.1157L131.355 20.4162C128.644 17.7249 125.004 16.2181 121.213 16.2183H45.2949C41.5084 16.2183 37.8691 17.7263 35.1529 20.4162L20.3414 35.1157C18.9589 36.4862 17.8608 38.1239 17.1116 39.9322C16.3625 41.7405 15.9775 43.6828 15.9795 45.6445V119.034C15.9795 123.001 17.5583 126.791 20.3414 129.562L35.1529 144.262C37.8691 146.952 41.495 148.46 45.2949 148.46H121.213C124.999 148.46 128.638 146.952 131.355 144.262L146.166 129.562C148.963 126.791 150.528 123.001 150.528 119.034V45.6445C150.528 41.6911 148.949 37.8872 146.166 35.1157Z" fill="#EEEEEE"/>
<path d="M51.3825 83.1678C62.1933 83.1678 70.9573 74.2691 70.9573 63.2921C70.9573 52.3151 62.1933 43.4165 51.3825 43.4165C40.5716 43.4165 31.8076 52.3151 31.8076 63.2921C31.8076 74.2691 40.5716 83.1678 51.3825 83.1678Z" fill="#A7A5A5"/>
<path d="M51.3828 75.7899C58.1811 75.7899 63.6923 70.194 63.6923 63.2912C63.6923 56.3883 58.1811 50.7925 51.3828 50.7925C44.5844 50.7925 39.0732 56.3883 39.0732 63.2912C39.0732 70.194 44.5844 75.7899 51.3828 75.7899Z" fill="white"/>
<path d="M113.84 83.1678C124.651 83.1678 133.415 74.2691 133.415 63.2921C133.415 52.3151 124.651 43.4165 113.84 43.4165C103.029 43.4165 94.2651 52.3151 94.2651 63.2921C94.2651 74.2691 103.029 83.1678 113.84 83.1678Z" fill="#A7A5A5"/>
<path d="M113.84 75.7899C120.638 75.7899 126.149 70.194 126.149 63.2912C126.149 56.3883 120.638 50.7925 113.84 50.7925C107.041 50.7925 101.53 56.3883 101.53 63.2912C101.53 70.194 107.041 75.7899 113.84 75.7899Z" fill="white"/>
<path d="M8.2456 59.3394C8.2456 59.3394 1.60915 75.0714 5.32877 90.8034L0.65918 87.3391C0.65918 87.3391 1.03382 79.4867 3.32179 70.8327C5.62313 62.1516 8.2456 59.3394 8.2456 59.3394V59.3394ZM157.994 59.3394C157.994 59.3394 164.63 75.0714 160.911 90.8034L165.58 87.3391C165.58 87.3391 165.206 79.4867 162.918 70.8327C160.616 62.1516 157.994 59.3394 157.994 59.3394V59.3394Z" fill="#CDCDCD"/>
<path d="M80.2432 76.6189L73.0314 94.2122C72.2821 96.0327 73.6068 98.0433 75.5468 98.0433H89.6894C91.6161 98.0433 92.9408 96.0598 92.2182 94.253L85.2874 76.6597C84.3776 74.3638 81.1798 74.3366 80.2432 76.6189V76.6189Z" fill="#D3D3D3"/>
<path d="M62.2334 110.081V123.951V110.081ZM76.3894 110.081V123.951V110.081ZM90.5587 110.081V123.951V110.081ZM104.715 110.081V123.951Z" fill="#ECEFF1"/>
<path d="M107.19 123.951H59.3168C52.7473 123.951 47.4087 118.544 47.4087 111.86V110.081H119.085V111.86C119.085 118.531 113.76 123.951 107.19 123.951Z" fill="white"/>
<path d="M108.368 123.951H58.1397C52.2258 123.951 47.4224 119.074 47.4224 113.069C47.4224 111.412 48.747 110.081 50.3659 110.081H116.155C117.787 110.081 119.099 111.426 119.099 113.069C119.085 119.074 114.295 123.951 108.368 123.951Z" fill="#A7A5A5"/>
<path d="M60.1333 111.698V123.11C60.1333 123.11 47.4224 122.05 47.4224 111.861L60.1333 111.698ZM106.267 111.698V123.11C106.267 123.11 118.978 122.05 118.978 111.861L106.267 111.698Z" fill="#A7A5A5"/>
<path d="M65.3374 112.99H73.633V121.087H65.3374V112.99ZM78.4631 112.99H86.7587V121.087H78.4631V112.99ZM91.5888 112.99H99.8844V121.087H91.5888V112.99ZM105.036 121.087H104.715V112.99H113.01C113.01 117.459 109.438 121.087 105.036 121.087V121.087ZM60.5207 121.087H60.1995C55.7975 121.087 52.2251 117.459 52.2251 112.99H60.5207V121.087Z" fill="white"/>
</svg>
