<svg width="25" height="24" viewBox="0 0 25 24" fill="none" xmlns="http://www.w3.org/2000/svg">
<path d="M24.4262 11.3157L13.0935 0.251976C13.0119 0.1721 12.915 0.10873 12.8083 0.0654927C12.7016 0.0222555 12.5872 0 12.4717 0C12.3562 0 12.2418 0.0222555 12.1351 0.0654927C12.0284 0.10873 11.9315 0.1721 11.8499 0.251976L0.517247 11.3157C0.187089 11.6382 0 12.0764 0 12.5333C0 13.4822 0.789627 14.2536 1.76084 14.2536H2.95491V22.1482C2.95491 22.624 3.34835 23.0084 3.83533 23.0084H10.7109V16.9873H13.7923V23.0084H21.1081C21.5951 23.0084 21.9885 22.624 21.9885 22.1482V14.2536H23.1826C23.6503 14.2536 24.0988 14.0735 24.4289 13.7483C25.114 13.0763 25.114 11.9877 24.4262 11.3157Z" fill="#777674"/>
</svg>
