<svg width="13" height="20" viewBox="0 0 13 20" fill="none" xmlns="http://www.w3.org/2000/svg">
<path d="M0.935547 0.835427C0.935547 0.633606 1.03842 0.440052 1.22154 0.297344C1.40465 0.154636 1.65301 0.0744629 1.91198 0.0744629C3.59534 0.0744629 4.98382 0.511256 5.93486 0.935874C6.27466 1.08654 6.56173 1.23722 6.79412 1.37115C7.02651 1.23722 7.31358 1.08654 7.65338 0.935874C8.87544 0.381043 10.262 0.084139 11.6763 0.0744629C11.9352 0.0744629 12.1836 0.154636 12.3667 0.297344C12.5498 0.440052 12.6527 0.633606 12.6527 0.835427C12.6527 1.03725 12.5498 1.2308 12.3667 1.37351C12.1836 1.51622 11.9352 1.59639 11.6763 1.59639C10.4303 1.59639 9.37775 1.92056 8.622 2.25691C8.32415 2.38916 8.03952 2.53873 7.77055 2.70435V9.20603H8.74698C9.00594 9.20603 9.2543 9.2862 9.43742 9.42891C9.62053 9.57162 9.72341 9.76517 9.72341 9.96699C9.72341 10.1688 9.62053 10.3624 9.43742 10.5051C9.2543 10.6478 9.00594 10.728 8.74698 10.728H7.77055V17.2296C7.96584 17.3514 8.25486 17.5142 8.622 17.6771C9.37775 18.0134 10.4303 18.3376 11.6763 18.3376C11.9352 18.3376 12.1836 18.4178 12.3667 18.5605C12.5498 18.7032 12.6527 18.8967 12.6527 19.0986C12.6527 19.3004 12.5498 19.4939 12.3667 19.6366C12.1836 19.7793 11.9352 19.8595 11.6763 19.8595C10.262 19.8498 8.87544 19.5529 7.65338 18.9981C7.35657 18.867 7.06968 18.7227 6.79412 18.5659C6.51861 18.7232 6.23172 18.868 5.93486 18.9996C4.71281 19.5545 3.32623 19.8514 1.91198 19.861C1.65301 19.861 1.40465 19.7809 1.22154 19.6382C1.03842 19.4955 0.935547 19.3019 0.935547 19.1001C0.935547 18.8983 1.03842 18.7047 1.22154 18.562C1.40465 18.4193 1.65301 18.3391 1.91198 18.3391C3.1579 18.3391 4.21049 18.0149 4.96625 17.6786C5.33338 17.5158 5.62045 17.3529 5.81769 17.2311V10.728H4.84126C4.5823 10.728 4.33394 10.6478 4.15082 10.5051C3.96771 10.3624 3.86483 10.1688 3.86483 9.96699C3.86483 9.76517 3.96771 9.57162 4.15082 9.42891C4.33394 9.2862 4.5823 9.20603 4.84126 9.20603H5.81769V2.70435C5.54872 2.53873 5.2641 2.38916 4.96625 2.25691C4.0391 1.83364 2.98642 1.60598 1.91198 1.59639C1.65301 1.59639 1.40465 1.51622 1.22154 1.37351C1.03842 1.2308 0.935547 1.03725 0.935547 0.835427Z" fill="#555151"/>
</svg>
